<?xml version="1.0" standalone="no"?>
<!DOCTYPE svg PUBLIC "-//W3C//DTD SVG 20010904//EN"
 "http://www.w3.org/TR/2001/REC-SVG-20010904/DTD/svg10.dtd">
<svg version="1.0" xmlns="http://www.w3.org/2000/svg"
 width="1024.000000pt" height="1024.000000pt" viewBox="0 0 1024.000000 1024.000000"
 preserveAspectRatio="xMidYMid meet">
<metadata>
Created by potrace 1.14, written by Peter Selinger 2001-2017
</metadata>
<g transform="translate(0.000000,1024.000000) scale(0.100000,-0.100000)"
fill="#000000" stroke="none">
<path d="M3960 7108 c-55 -38 -74 -71 -78 -141 -6 -98 41 -172 121 -192 15 -4
27 -13 27 -21 0 -18 -182 -204 -200 -204 -7 0 -36 14 -63 32 -45 29 -59 33
-142 36 -72 3 -100 1 -128 -13 -50 -24 -123 -105 -136 -151 -35 -127 16 -266
118 -319 24 -12 31 -21 26 -33 -24 -59 -46 -183 -56 -310 -15 -179 -2 -366 36
-517 37 -149 142 -359 243 -489 39 -51 43 -60 29 -68 -16 -8 -17 -78 -17 -864
l0 -854 353 2 c193 2 539 -1 767 -6 369 -8 427 -7 525 8 301 46 572 184 785
400 102 103 157 174 229 295 119 199 185 551 152 806 -20 149 -97 351 -189
495 -19 30 -68 88 -108 129 -41 41 -74 76 -74 76 0 1 29 50 65 109 106 178
137 290 138 501 1 336 -114 601 -367 842 -176 169 -400 292 -630 347 -232 56
-538 47 -801 -22 -116 -31 -249 -81 -301 -113 -17 -10 -41 -19 -52 -19 -20 0
-21 2 -7 40 19 53 5 130 -33 185 -31 44 -52 53 -138 54 -48 1 -68 -4 -94 -21z
m1428 -439 l55 -13 24 31 24 31 42 -28 c23 -16 51 -38 61 -49 19 -21 19 -22
-8 -50 -19 -20 -26 -36 -24 -59 1 -18 5 -32 8 -32 7 0 45 -63 43 -70 -1 -3 20
-3 46 -2 l48 4 6 -54 c4 -29 7 -74 7 -100 0 -52 -3 -54 -79 -60 -30 -3 -35 -8
-52 -53 -24 -63 -24 -76 1 -98 11 -9 20 -20 20 -24 -1 -15 -100 -113 -114
-113 -7 0 -19 7 -26 16 -26 31 -46 34 -94 17 -44 -17 -46 -19 -46 -58 0 -23
-5 -46 -12 -53 -7 -7 -44 -12 -94 -12 -90 0 -86 -3 -98 71 -5 27 -13 38 -29
43 -39 10 -84 6 -97 -9 -7 -8 -16 -15 -21 -15 -5 0 -39 30 -76 66 l-68 65 29
25 29 25 -18 54 -19 53 -58 7 -58 7 2 86 2 87 6 -85 c3 -47 7 -71 8 -54 2 31
33 70 45 57 4 -3 7 17 7 45 l0 52 -30 -6 c-19 -4 -30 -2 -30 5 0 7 21 11 54
11 45 0 56 3 61 19 3 11 21 36 40 57 40 43 39 41 23 50 -7 5 -9 2 -4 -7 4 -8
0 -5 -8 5 -20 25 -20 32 2 40 38 15 62 31 62 44 0 7 4 11 9 8 5 -3 15 2 22 11
8 9 9 14 3 10 -7 -4 -15 0 -18 8 -4 13 -2 13 14 5 24 -13 71 -13 104 0 23 8
26 16 27 57 1 31 3 37 6 18 9 -71 11 -74 38 -62 14 7 23 18 20 25 -3 8 -5 20
-5 28 0 8 -10 15 -22 15 -13 1 -3 5 22 9 25 5 53 6 62 4 10 -3 26 -1 35 5 16
9 19 4 27 -43 l9 -53 55 -14z m-400 36 c-2 -1 -14 -8 -28 -15 -25 -13 -25 -13
-6 8 10 12 23 19 28 16 5 -3 8 -7 6 -9z m-89 -71 c-21 -22 -21 -24 -4 -19 19
6 19 6 2 -5 -32 -20 -45 5 -16 29 34 29 47 26 18 -5z m-531 -228 c128 -28 285
-131 327 -214 15 -32 15 -35 -2 -48 -17 -14 -16 -14 5 -4 13 7 25 10 26 8 25
-34 46 -80 40 -89 -4 -8 -3 -9 4 -5 7 4 12 3 12 -3 0 -5 -6 -12 -12 -14 -8 -4
-7 -6 4 -6 19 -1 43 -95 32 -124 -3 -10 -1 -17 5 -17 6 0 11 -16 11 -36 0 -19
-3 -33 -7 -31 -5 3 -8 -14 -8 -36 -1 -64 -40 -155 -98 -226 -29 -36 -58 -67
-66 -69 -9 -3 -11 0 -6 8 5 9 4 11 -4 6 -6 -4 -8 -12 -5 -18 3 -5 -13 -30 -37
-54 l-44 -45 -5 -112 -5 -112 -153 -3 c-84 -1 -160 1 -168 6 -8 5 -41 5 -72 0
-31 -4 -82 -5 -113 -2 l-56 6 0 107 c1 85 -2 113 -17 141 -22 40 -40 60 -55
60 -6 0 -11 9 -11 21 0 11 -4 18 -9 15 -11 -7 -73 62 -66 73 2 5 -2 14 -10 21
-8 7 -12 16 -9 21 3 5 0 9 -7 9 -8 0 -8 4 -1 13 8 9 8 17 0 27 -8 12 -9 12 -4
-2 3 -10 1 -18 -4 -18 -12 0 -33 67 -24 81 4 7 3 9 -4 5 -15 -9 -26 110 -18
194 3 37 15 97 26 132 20 64 62 120 75 99 8 -14 25 -14 25 0 0 5 -4 8 -9 5 -5
-3 -12 1 -15 10 -7 17 50 92 70 93 7 1 14 7 17 14 3 6 19 21 37 31 18 10 30
14 26 7 -4 -6 -1 -11 6 -12 12 0 -27 -21 -44 -23 -14 -2 -20 -16 -7 -17 19 -1
41 -6 60 -14 10 -3 20 -1 25 6 5 8 2 11 -7 7 -11 -4 -15 4 -15 32 -1 38 0 39
60 66 42 19 78 28 117 28 32 1 55 4 52 9 -7 11 66 8 135 -7z m1087 -1145 c22
-5 30 -12 29 -28 0 -12 3 -20 8 -17 4 3 8 -14 8 -38 0 -24 3 -67 6 -95 l7 -53
41 0 c34 0 65 -12 96 -37 2 -2 -2 -8 -10 -13 -9 -6 -10 -10 -3 -10 6 0 14 4
18 10 3 5 12 7 21 3 8 -3 25 3 37 14 38 34 47 36 44 11 -2 -21 2 -23 51 -24
39 0 52 3 52 14 0 8 10 23 22 33 13 12 16 19 8 19 -7 0 -10 3 -7 6 3 4 45 -32
93 -80 l87 -87 -28 -29 c-15 -16 -33 -26 -39 -23 -6 3 -8 3 -4 -2 4 -4 -7 -27
-25 -49 -37 -45 -52 -76 -37 -76 6 0 10 -5 10 -11 0 -5 -5 -7 -12 -3 -7 4 -8
3 -4 -5 4 -6 11 -9 15 -6 8 4 29 -43 45 -100 5 -17 16 -20 78 -22 97 -4 115
-9 122 -35 3 -13 6 -84 6 -159 l0 -136 -61 -7 c-34 -3 -79 -6 -100 -6 -35 0
-38 -3 -49 -37 -7 -21 -21 -58 -32 -82 l-19 -44 51 -52 c28 -28 47 -55 43 -59
-5 -4 -2 -6 6 -4 8 2 16 -5 18 -14 4 -17 -132 -186 -178 -220 -26 -20 -27 -20
-52 2 -15 13 -24 28 -20 33 3 6 1 7 -4 4 -6 -4 -31 13 -55 37 l-45 44 -59 -29
c-33 -16 -69 -29 -81 -29 -30 0 -39 -22 -45 -101 -3 -38 -13 -80 -24 -98 l-18
-31 -121 0 c-120 0 -122 0 -146 28 -21 23 -24 39 -27 115 -4 85 -5 87 -29 87
-13 0 -52 14 -85 30 l-62 31 -61 -61 c-33 -33 -68 -60 -76 -60 -23 0 -72 48
-63 62 4 6 3 8 -3 5 -11 -7 -66 46 -58 56 3 4 2 5 -1 3 -8 -6 -59 45 -56 56 1
5 -2 7 -8 3 -19 -12 -22 25 -5 53 28 45 95 101 113 95 13 -4 14 -3 4 5 -7 5
-20 22 -28 37 -11 22 -12 31 -2 44 11 14 11 14 -3 3 -17 -13 -26 0 -44 65 -5
19 -15 22 -83 28 -42 3 -86 7 -97 8 -19 2 -20 10 -23 163 l-2 161 52 6 c72 9
135 9 141 0 2 -5 2 -3 1 4 -6 23 26 108 51 137 32 37 32 46 -6 82 -39 36 -120
134 -97 115 15 -11 19 -11 24 5 16 52 27 74 35 74 5 0 9 7 9 16 0 8 4 13 10 9
5 -3 8 -11 6 -18 -1 -7 -1 -9 1 -4 3 4 13 7 24 7 13 0 19 7 19 21 0 18 -2 19
-15 9 -11 -9 -15 -9 -15 -1 0 6 8 15 17 18 9 4 30 22 46 40 16 18 34 33 41 33
6 0 40 -29 75 -65 35 -36 69 -65 75 -65 6 0 20 6 31 14 22 15 99 43 140 50 18
3 25 0 25 -11 0 -13 3 -13 15 -3 8 7 15 21 15 31 0 12 7 19 18 19 11 0 24 12
30 26 7 14 8 23 2 19 -5 -3 -10 -1 -10 4 0 6 5 11 11 11 6 0 8 9 4 20 -5 16
-2 20 14 20 17 0 21 6 21 30 0 24 4 30 22 30 28 0 12 17 -22 23 -14 2 7 4 45
4 39 1 84 -2 100 -6z m-265 -171 c4 0 10 -9 13 -21 4 -15 2 -19 -10 -15 -8 3
-17 6 -19 6 -2 0 -3 17 -3 38 1 23 3 28 6 15 2 -13 8 -23 13 -23z m640 -7
c-12 -8 -19 -20 -17 -27 3 -6 -5 -11 -18 -11 -20 0 -20 2 9 30 17 17 35 29 39
27 5 -2 -1 -11 -13 -19z m-1292 -38 c3 -45 -35 -132 -56 -127 -6 1 -11 -1 -11
-5 4 -22 -4 -33 -40 -58 -23 -15 -45 -24 -52 -19 -8 4 -10 3 -5 -4 18 -29
-128 -27 -150 2 -11 16 -44 13 -44 -5 0 -4 6 -6 13 -3 8 3 19 -2 26 -10 10
-12 6 -13 -29 -4 -29 8 -37 13 -28 19 9 6 4 9 -14 9 -18 0 -28 5 -28 14 0 8
-4 18 -10 21 -6 4 -7 -1 -3 -12 8 -23 -6 -10 -22 19 -6 13 -16 22 -22 21 -18
-4 -36 24 -22 33 7 4 10 3 7 -2 -4 -5 6 -10 20 -10 15 -1 21 1 14 3 -6 3 -10
9 -7 14 4 5 -2 6 -11 2 -12 -5 -15 -3 -9 6 6 10 3 11 -11 3 -18 -9 -19 -5 -20
65 l-2 74 257 -3 256 -3 3 -40z m-544 -5 c-2 -56 -10 -59 -13 -5 -1 25 2 45 7
45 4 0 7 -18 6 -40z m471 -1082 c2 -13 6 -36 7 -51 3 -25 10 -31 58 -47 30
-11 65 -19 78 -20 32 0 56 -15 77 -46 16 -25 16 -29 0 -63 -22 -49 -8 -89 35
-97 16 -4 30 -10 30 -15 0 -5 7 -6 15 -3 12 5 15 -5 15 -60 l0 -66 -34 0 c-35
0 -63 -21 -51 -39 15 -25 15 -92 0 -120 -22 -43 -43 -52 -79 -34 -33 17 -85
12 -122 -12 -19 -12 -24 -24 -24 -60 l0 -45 -77 1 c-53 0 -72 3 -58 9 19 8 19
9 -2 9 -19 1 -23 7 -23 32 0 17 5 39 10 50 7 13 7 19 0 19 -5 0 -10 -7 -10
-15 0 -14 -3 -13 -24 2 -15 11 -20 21 -13 25 18 11 -60 0 -83 -12 -29 -16 -52
-5 -48 22 2 11 -3 23 -9 25 -7 3 -13 0 -13 -6 0 -6 -5 -11 -11 -11 -5 0 -8 4
-5 9 4 5 0 11 -6 14 -10 3 -10 8 1 18 8 8 11 9 7 2 -10 -19 9 -23 32 -7 12 8
22 24 22 34 0 10 6 20 13 23 6 2 -1 8 -17 12 -18 5 -36 4 -47 -3 -15 -10 -17
-9 -13 3 4 8 10 15 15 15 6 0 6 7 0 18 -6 11 -6 24 0 33 12 19 11 59 -1 59 -5
0 -10 13 -10 28 0 15 -6 34 -12 41 -11 11 -10 13 4 8 9 -3 19 0 22 9 4 9 2 12
-5 8 -7 -4 -7 1 1 15 6 12 11 32 10 44 -4 46 0 57 27 63 15 4 32 12 39 18 12
11 7 46 -7 46 -5 0 -9 5 -9 11 0 6 5 7 13 2 16 -10 106 -12 112 -2 3 4 -5 5
-17 3 -17 -4 -15 -1 7 9 17 8 39 22 50 30 19 14 19 16 3 22 -10 4 -18 18 -18
31 0 21 5 23 63 27 34 2 65 4 69 5 4 1 10 -8 13 -20z m-309 -115 c-10 -10 -19
5 -10 18 6 11 8 11 12 0 2 -7 1 -15 -2 -18z m-42 -52 c3 -5 -1 -11 -9 -15 -15
-6 -29 7 -18 18 9 9 21 8 27 -3z m-52 -168 c-6 -2 -10 -9 -7 -13 3 -5 -4 -8
-15 -7 -35 2 -21 28 14 26 12 0 15 -3 8 -6z m-1 -136 c-10 -9 -11 -8 -5 6 3
10 9 15 12 12 3 -3 0 -11 -7 -18z"/>
<path d="M5175 6590 c3 -5 8 -10 11 -10 2 0 4 5 4 10 0 6 -5 10 -11 10 -5 0
-7 -4 -4 -10z"/>
<path d="M5151 6555 c-18 -8 -38 -12 -44 -8 -5 3 -7 2 -4 -4 3 -5 -12 -27 -35
-49 -23 -21 -49 -57 -59 -79 -22 -48 -25 -151 -5 -198 12 -29 86 -126 86 -113
0 3 19 -4 42 -16 53 -28 129 -27 195 2 60 26 86 50 108 100 10 22 21 38 24 35
4 -2 7 4 8 13 1 9 4 42 8 72 5 41 3 65 -9 94 -9 21 -13 42 -10 47 3 5 -1 18
-9 30 -8 11 -16 16 -18 10 -2 -6 -16 0 -32 14 -64 60 -172 82 -246 50z m299
-96 c0 -6 -4 -7 -10 -4 -5 3 -10 11 -10 16 0 6 5 7 10 4 6 -3 10 -11 10 -16z"/>
<path d="M4870 6422 c0 -6 -7 -12 -15 -14 -10 -2 -12 -8 -6 -17 7 -11 11 -9
21 9 6 12 9 24 6 28 -3 3 -6 0 -6 -6z"/>
<path d="M4885 6030 c3 -5 8 -10 11 -10 2 0 4 5 4 10 0 6 -5 10 -11 10 -5 0
-7 -4 -4 -10z"/>
<path d="M4045 6350 c-4 -6 -11 -7 -17 -4 -7 4 -8 2 -4 -5 6 -9 11 -9 22 0 14
11 18 19 10 19 -3 0 -8 -5 -11 -10z"/>
<path d="M4125 6350 c-3 -5 -1 -10 4 -10 6 0 11 5 11 10 0 6 -2 10 -4 10 -3 0
-8 -4 -11 -10z"/>
<path d="M4052 6328 c-17 -17 -15 -35 3 -35 10 0 12 4 5 12 -6 7 -5 16 2 23 7
7 10 12 7 12 -3 0 -10 -5 -17 -12z"/>
<path d="M4115 6302 c-27 -10 -71 -32 -96 -49 -26 -18 -50 -29 -54 -25 -5 4
-5 2 -2 -4 4 -7 0 -17 -8 -24 -43 -36 -109 -146 -121 -204 -17 -79 -17 -191
-1 -247 8 -24 12 -50 9 -58 -3 -8 4 -21 15 -30 10 -9 31 -35 46 -59 26 -40 27
-45 13 -73 -15 -31 -13 -37 8 -16 7 7 11 19 8 27 -2 8 15 -4 37 -27 23 -23 41
-45 40 -50 -3 -20 2 -33 15 -33 19 0 26 -23 33 -102 l6 -68 38 0 c25 0 46 7
58 19 14 14 21 16 25 8 2 -7 5 7 5 30 1 23 4 48 7 56 4 12 0 14 -14 11 -17 -5
-19 2 -25 88 -7 116 -29 189 -70 236 -18 20 -39 46 -47 56 -15 19 -14 19 12 2
15 -10 26 -22 23 -26 -3 -5 -1 -11 4 -14 5 -3 12 9 15 28 8 41 30 52 50 25 13
-20 14 -19 36 15 15 25 19 43 14 58 -4 13 -6 24 -5 26 1 2 -8 12 -20 23 -28
24 -84 25 -98 2 -6 -10 -11 -13 -11 -7 0 16 20 31 53 39 31 8 34 17 12 35 -10
8 -15 9 -15 2 0 -6 -7 -9 -16 -5 -15 5 -15 7 1 15 27 16 67 -1 108 -44 33 -36
41 -50 39 -70 -1 -3 5 -12 14 -19 8 -7 14 -8 12 -3 -4 14 51 91 78 109 14 9
29 13 35 10 5 -4 8 -1 7 7 -2 9 11 14 44 16 40 3 52 -1 72 -21 36 -36 41 -83
17 -140 -14 -31 -25 -46 -32 -41 -8 4 -9 3 -5 -5 11 -17 -52 -111 -70 -104 -8
3 -14 0 -14 -7 0 -6 5 -8 12 -4 8 5 9 2 4 -12 -28 -69 -56 -215 -56 -290 0
-73 -2 -84 -17 -85 -10 0 9 -8 42 -18 33 -10 63 -16 68 -14 4 2 7 28 7 56 0
63 16 122 38 146 126 130 191 229 217 326 23 89 16 173 -20 258 -5 12 -3 17 9
17 9 0 16 4 16 9 0 6 -9 8 -19 6 -11 -2 -22 3 -25 11 -4 11 -1 12 12 6 9 -5
23 -7 30 -6 6 1 17 2 23 3 5 0 7 6 4 11 -4 6 -11 8 -17 4 -5 -3 -9 2 -8 12 4
33 1 35 -30 19 -30 -16 -55 -21 -33 -7 10 6 9 12 -3 28 -14 17 -15 17 -10 1 4
-11 2 -16 -5 -12 -5 4 -7 15 -4 26 4 10 2 20 -4 20 -6 1 -14 2 -19 3 -10 1
-115 78 -124 91 -4 5 -8 6 -8 1 0 -5 -6 -4 -13 2 -48 40 -262 54 -352 24z
m-74 -345 c-6 -8 -8 -17 -4 -20 3 -4 1 -7 -4 -7 -6 0 -16 -12 -21 -27 -6 -16
-11 -21 -11 -13 -1 17 35 80 45 80 4 0 1 -6 -5 -13z m19 -87 c6 -11 7 -20 2
-20 -6 0 -12 9 -15 20 -3 11 -3 20 -1 20 2 0 8 -9 14 -20z m-32 -75 c-3 -3 -9
2 -12 12 -6 14 -5 15 5 6 7 -7 10 -15 7 -18z m77 15 c3 -5 1 -10 -4 -10 -6 0
-11 5 -11 10 0 6 2 10 4 10 3 0 8 -4 11 -10z"/>
<path d="M3916 6273 c-3 -3 -6 -11 -6 -18 0 -13 37 -17 45 -5 7 11 -30 32 -39
23z m29 -21 c-3 -3 -11 0 -18 7 -9 10 -8 11 6 5 10 -3 15 -9 12 -12z"/>
<path d="M4711 6023 c7 -12 15 -20 18 -17 3 2 -3 12 -13 22 -17 16 -18 16 -5
-5z"/>
<path d="M4386 5909 c-33 -26 -59 -75 -51 -98 7 -24 -12 -39 -63 -47 -38 -6
-42 -5 -42 15 0 11 -4 21 -10 21 -5 0 -13 0 -17 0 -20 1 -19 -92 1 -161 12
-38 16 -96 16 -210 l0 -157 27 -5 c16 -3 31 -3 35 0 5 2 8 37 8 77 0 92 32
273 62 350 16 42 38 74 76 110 55 52 65 82 36 110 -21 22 -46 20 -78 -5z"/>
<path d="M4305 5790 c-3 -5 -1 -10 4 -10 6 0 11 5 11 10 0 6 -2 10 -4 10 -3 0
-8 -4 -11 -10z"/>
<path d="M4713 5619 c-2 -23 3 -25 10 -4 4 8 3 16 -1 19 -4 3 -9 -4 -9 -15z"/>
<path d="M3990 5411 c0 -6 5 -13 10 -16 6 -3 10 1 10 9 0 9 -4 16 -10 16 -5 0
-10 -4 -10 -9z"/>
<path d="M4525 5400 c-3 -5 -1 -10 4 -10 6 0 11 5 11 10 0 6 -2 10 -4 10 -3 0
-8 -4 -11 -10z"/>
<path d="M3980 5366 c0 -8 5 -18 10 -21 6 -3 10 3 10 14 0 12 -4 21 -10 21 -5
0 -10 -6 -10 -14z"/>
<path d="M4201 5294 c-1 -23 34 -61 43 -46 3 5 -3 12 -13 15 -11 2 -21 15 -24
28 -4 21 -4 22 -6 3z"/>
<path d="M4307 5259 c7 -7 15 -10 18 -7 3 3 -2 9 -12 12 -14 6 -15 5 -6 -5z"/>
<path d="M4368 5183 c12 -2 30 -2 40 0 9 3 -1 5 -23 4 -22 0 -30 -2 -17 -4z"/>
<path d="M5130 5000 c11 -21 30 -27 30 -10 0 6 -6 10 -12 11 -7 0 -4 4 7 9 18
8 17 9 -8 9 -25 1 -27 -1 -17 -19z"/>
<path d="M5268 4913 c12 -2 30 -2 40 0 9 3 -1 5 -23 4 -22 0 -30 -2 -17 -4z"/>
<path d="M5368 4903 c6 -2 18 -2 25 0 6 3 1 5 -13 5 -14 0 -19 -2 -12 -5z"/>
<path d="M5200 4864 c-30 -8 -75 -27 -100 -41 -70 -41 -163 -142 -201 -218
-29 -60 -33 -78 -37 -174 -3 -79 0 -122 11 -161 9 -29 14 -57 13 -64 -2 -6 -1
-7 2 -3 2 4 14 -11 25 -35 28 -57 110 -139 181 -178 49 -28 55 -34 44 -49 -11
-14 -11 -14 4 -3 13 11 27 10 80 -4 82 -21 221 -15 295 14 29 11 54 17 57 14
11 -10 6 -22 -9 -22 -8 0 -15 -8 -15 -17 1 -14 6 -12 25 10 14 16 28 26 33 24
11 -6 43 31 32 38 -5 3 -11 1 -15 -5 -9 -15 -45 -32 -45 -22 0 13 79 64 89 58
4 -3 7 4 7 16 -1 27 17 33 38 13 15 -15 16 -15 16 4 0 14 -5 19 -15 15 -15 -6
-22 11 -7 18 21 9 100 152 107 193 3 25 9 43 13 41 4 -2 4 45 1 104 -8 133
-37 203 -122 296 -31 34 -53 65 -49 69 4 5 2 5 -5 2 -6 -4 -17 -2 -25 5 -72
68 -290 99 -428 62z m231 -280 c79 -39 119 -102 119 -190 0 -99 -59 -175 -158
-205 -35 -10 -50 -9 -97 6 -31 9 -59 24 -62 31 -3 8 -8 12 -13 9 -21 -13 -90
105 -90 154 0 39 36 135 57 153 15 12 16 10 10 -19 -6 -31 1 -42 17 -25 4 4
11 7 14 8 25 3 68 19 73 27 4 5 4 18 2 28 -4 16 -8 17 -20 8 -10 -9 -17 -9
-25 -1 -8 8 -8 13 3 16 8 2 21 7 29 9 33 11 109 6 141 -9z"/>
<path d="M5390 4560 c-35 -7 -35 -7 -5 -9 17 0 37 4 45 9 17 11 11 11 -40 0z"/>
<path d="M5040 4820 c-9 -6 -10 -10 -3 -10 6 0 15 5 18 10 8 12 4 12 -15 0z"/>
<path d="M4522 4542 c-12 -8 -7 -42 7 -42 12 0 31 23 31 37 0 15 -18 17 -38 5z"/>
<path d="M5831 4524 c0 -11 3 -14 6 -6 3 7 2 16 -1 19 -3 4 -6 -2 -5 -13z"/>
<path d="M4513 4390 c0 -41 2 -58 4 -37 2 20 2 54 0 75 -2 20 -4 3 -4 -38z"/>
<path d="M4717 3992 c-10 -10 -17 -23 -17 -28 0 -5 5 -2 10 6 9 13 10 13 10 0
0 -9 -5 -21 -12 -28 -17 -17 -1 -15 33 5 19 11 29 26 29 40 0 28 -30 31 -53 5z"/>
<path d="M5532 3920 c0 -14 2 -19 5 -12 2 6 2 18 0 25 -3 6 -5 1 -5 -13z"/>
<path d="M4500 5060 c-9 -6 -10 -10 -3 -10 6 0 15 5 18 10 8 12 4 12 -15 0z"/>
<path d="M4092 5026 c4 -5 2 -20 -3 -34 -6 -15 -7 -24 -4 -20 4 3 19 -8 34
-25 26 -29 33 -31 113 -35 52 -3 100 0 122 8 41 13 78 54 69 76 -5 13 -28 14
-166 8 -113 -5 -158 -4 -153 4 3 6 1 14 -6 18 -7 4 -10 4 -6 0z"/>
<path d="M4495 5013 c5 -19 2 -22 -22 -20 -15 1 -31 7 -36 12 -4 6 -5 -1 -3
-15 2 -15 -5 -35 -18 -50 -19 -22 -19 -23 -1 -9 11 9 26 14 33 12 6 -3 12 1
12 8 0 10 3 10 12 1 16 -16 31 -15 25 1 -2 6 0 20 5 30 6 11 5 24 -2 35 -9 15
-10 14 -5 -5z"/>
<path d="M4090 4946 c0 -2 7 -9 15 -16 13 -11 14 -10 9 4 -5 14 -24 23 -24 12z"/>
<path d="M4427 4913 c-11 -10 -8 -20 8 -26 8 -4 17 -1 21 5 4 6 3 8 -4 4 -6
-3 -13 -2 -16 3 -4 5 2 12 11 14 14 4 15 5 2 6 -9 0 -19 -2 -22 -6z"/>
<path d="M4405 4869 c-4 -6 -4 -13 -1 -16 3 -4 6 -1 6 6 0 7 5 9 12 5 7 -4 8
-3 4 4 -9 15 -13 15 -21 1z"/>
<path d="M4361 3770 c-44 -10 -76 -35 -115 -88 -27 -38 -31 -52 -30 -105 0
-34 6 -75 13 -92 8 -16 14 -42 14 -57 0 -23 3 -26 17 -18 12 6 29 3 57 -11 40
-20 147 -34 137 -18 -3 5 2 9 11 9 11 0 15 -5 11 -15 -4 -12 0 -14 22 -9 38
10 41 12 35 34 -5 17 -8 18 -21 8 -11 -9 -9 -4 3 14 16 21 21 23 23 10 2 -10
8 -21 13 -27 6 -6 7 3 3 23 -5 25 -3 32 9 32 22 0 32 19 18 33 -9 9 -11 8 -6
-5 4 -10 3 -18 -3 -18 -11 0 -10 14 7 75 6 21 8 42 5 47 -3 5 0 16 8 25 7 9 8
14 2 11 -6 -4 -18 14 -29 43 -11 27 -25 49 -32 49 -7 0 -13 4 -13 9 0 11 -56
37 -95 44 -16 3 -45 2 -64 -3z"/>
<path d="M4580 3660 c0 -5 5 -10 10 -10 6 0 10 5 10 10 0 6 -4 10 -10 10 -5 0
-10 -4 -10 -10z"/>
<path d="M4136 3515 c-9 -26 -7 -32 5 -12 6 10 9 21 6 23 -2 3 -7 -2 -11 -11z"/>
<path d="M4200 3515 c0 -5 5 -17 10 -25 5 -8 10 -10 10 -5 0 6 -5 17 -10 25
-5 8 -10 11 -10 5z"/>
<path d="M4300 3379 c0 -5 5 -7 10 -4 6 3 10 8 10 11 0 2 -4 4 -10 4 -5 0 -10
-5 -10 -11z"/>
</g>
</svg>
